#define arpegg_width 11
#define arpegg_height 21
static unsigned char arpegg_bits[] = {
   0x70, 0x00, 0x70, 0x00, 0x78, 0x00, 0x7c, 0x00, 0x7e, 0x00, 0x7e, 0x00,
   0xfe, 0x00, 0xff, 0x00, 0xff, 0x01, 0xff, 0x03, 0xff, 0x03, 0xff, 0x07,
   0xfe, 0x07, 0xfe, 0x07, 0xfc, 0x07, 0xf8, 0x07, 0xf8, 0x03, 0xf0, 0x03,
   0xf0, 0x01, 0xf0, 0x00, 0xf0, 0x00};
