#define cross_icon_width 8
#define cross_icon_height 15
static unsigned char cross_icon_bits[] = {
   0x20, 0x22, 0x22, 0x72, 0x7e, 0x2f, 0x23, 0x22, 0x72, 0x7e, 0x2f, 0x23,
   0x22, 0x02, 0x02};
