#define flat_icon_width 8
#define flat_icon_height 15
static unsigned char flat_icon_bits[] = {
   0x02, 0x02, 0x02, 0x02, 0x02, 0x32, 0x7a, 0x4e, 0x46, 0x42, 0x62, 0x32,
   0x1e, 0x06, 0x02};
