#define drum_clef_width 57
#define drum_clef_height 100
static unsigned char drum_clef_bits[] = {
   0x00, 0x00, 0x00, 0x00, 0x00, 0x00, 0x00, 0xfe, 0x00, 0x00, 0x00, 0x00,
   0x00, 0x00, 0x00, 0xfe, 0x00, 0x00, 0x00, 0x00, 0x00, 0x00, 0x00, 0xfe,
   0x00, 0x00, 0x00, 0x00, 0x00, 0x00, 0x00, 0xfe, 0x00, 0x00, 0x00, 0x00,
   0x00, 0x00, 0x00, 0xfe, 0x00, 0x00, 0x00, 0x00, 0x00, 0x00, 0x00, 0xfe,
   0x00, 0x00, 0x00, 0x00, 0x00, 0x00, 0x00, 0xfe, 0x00, 0x00, 0x00, 0x00,
   0x00, 0x00, 0x00, 0xfe, 0x00, 0x00, 0x00, 0x00, 0x00, 0x00, 0x00, 0xfe,
   0x00, 0x00, 0x00, 0x00, 0x00, 0x00, 0x00, 0xfe, 0x00, 0x00, 0x00, 0x00,
   0x00, 0x00, 0x00, 0xfe, 0x00, 0x00, 0x00, 0x00, 0x00, 0x00, 0x00, 0xfe,
   0x00, 0x00, 0x00, 0x00, 0x00, 0x00, 0x00, 0xfe, 0x00, 0x00, 0x00, 0x00,
   0x00, 0x00, 0x00, 0xfe, 0x00, 0x00, 0x00, 0x00, 0x00, 0x00, 0x00, 0xfe,
   0x00, 0x00, 0x00, 0x00, 0x00, 0x00, 0x00, 0xfe, 0x00, 0x00, 0x00, 0x00,
   0x00, 0x00, 0x00, 0xfe, 0x00, 0x00, 0x00, 0x00, 0x00, 0x00, 0x00, 0xfe,
   0x00, 0x00, 0x00, 0x00, 0x00, 0x00, 0x00, 0xfe, 0x00, 0x00, 0x00, 0x00,
   0x00, 0x00, 0x00, 0xfe, 0x00, 0x00, 0x00, 0x00, 0x00, 0x00, 0x00, 0xfe,
   0x00, 0x00, 0x00, 0x00, 0x00, 0x00, 0x00, 0xfe, 0x00, 0x00, 0x00, 0x00,
   0x00, 0x00, 0x00, 0xfe, 0x00, 0x00, 0x00, 0x00, 0x00, 0x00, 0x00, 0xfe,
   0x00, 0x00, 0x00, 0x00, 0x00, 0x00, 0x00, 0xfe, 0x00, 0x00, 0x00, 0x00,
   0x00, 0x00, 0x00, 0xfe, 0x00, 0x00, 0x00, 0x00, 0x00, 0x00, 0x00, 0xfe,
   0x00, 0x00, 0x00, 0x00, 0x00, 0x00, 0x00, 0xfe, 0x00, 0x00, 0x00, 0x00,
   0x00, 0x00, 0x00, 0xfe, 0x00, 0x00, 0x00, 0x00, 0x00, 0x00, 0x00, 0xfe,
   0x00, 0x00, 0x00, 0x00, 0x00, 0x00, 0x00, 0xfe, 0x00, 0x00, 0x00, 0x00,
   0x00, 0x00, 0x00, 0xfe, 0x00, 0x00, 0x00, 0x00, 0x00, 0x00, 0x00, 0xfe,
   0x00, 0x00, 0x00, 0x00, 0x00, 0x00, 0x00, 0xfe, 0x00, 0x00, 0x00, 0x00,
   0x00, 0x00, 0x00, 0xfe, 0x00, 0x00, 0x00, 0x00, 0x00, 0x00, 0x00, 0xfe,
   0x00, 0x00, 0x00, 0x00, 0x00, 0x00, 0x00, 0xfe, 0x00, 0x00, 0x00, 0x00,
   0x00, 0x00, 0x00, 0xfe, 0x00, 0x00, 0x00, 0x00, 0x00, 0x00, 0x00, 0xfe,
   0x00, 0x00, 0x00, 0x00, 0x00, 0x00, 0x00, 0xfe, 0x00, 0x00, 0x00, 0x00,
   0x00, 0x00, 0x00, 0xfe, 0x00, 0xf8, 0x7f, 0x00, 0xfe, 0x1f, 0x00, 0xfe,
   0x00, 0xf8, 0x7f, 0x00, 0xfe, 0x1f, 0x00, 0xfe, 0x00, 0xf8, 0x7f, 0x00,
   0xfe, 0x1f, 0x00, 0xfe, 0x00, 0xf8, 0x7f, 0x00, 0xfe, 0x1f, 0x00, 0xfe,
   0x00, 0xf8, 0x7f, 0x00, 0xfe, 0x1f, 0x00, 0xfe, 0x00, 0xf8, 0x7f, 0x00,
   0xfe, 0x1f, 0x00, 0xfe, 0x00, 0xf8, 0x7f, 0x00, 0xfe, 0x1f, 0x00, 0xfe,
   0x00, 0xf8, 0x7f, 0x00, 0xfe, 0x1f, 0x00, 0xfe, 0x00, 0xf8, 0x7f, 0x00,
   0xfe, 0x1f, 0x00, 0xfe, 0x00, 0xf8, 0x7f, 0x00, 0xfe, 0x1f, 0x00, 0xfe,
   0x00, 0xf8, 0x7f, 0x00, 0xfe, 0x1f, 0x00, 0xfe, 0x00, 0xf8, 0x7f, 0x00,
   0xfe, 0x1f, 0x00, 0xfe, 0x00, 0xf8, 0x7f, 0x00, 0xfe, 0x1f, 0x00, 0xfe,
   0x00, 0xf8, 0x7f, 0x00, 0xfe, 0x1f, 0x00, 0xfe, 0x00, 0xf8, 0x7f, 0x00,
   0xfe, 0x1f, 0x00, 0xfe, 0x00, 0xf8, 0x7f, 0x00, 0xfe, 0x1f, 0x00, 0xfe,
   0x00, 0xf8, 0x7f, 0x00, 0xfe, 0x1f, 0x00, 0xfe, 0x00, 0xf8, 0x7f, 0x00,
   0xfe, 0x1f, 0x00, 0xfe, 0x00, 0xf8, 0x7f, 0x00, 0xfe, 0x1f, 0x00, 0xfe,
   0x00, 0xf8, 0x7f, 0x00, 0xfe, 0x1f, 0x00, 0xfe, 0x00, 0xf8, 0x7f, 0x00,
   0xfe, 0x1f, 0x00, 0xfe, 0x00, 0xf8, 0x7f, 0x00, 0xfe, 0x1f, 0x00, 0xfe,
   0x00, 0xf8, 0x7f, 0x00, 0xfe, 0x1f, 0x00, 0xfe, 0x00, 0xf8, 0x7f, 0x00,
   0xfe, 0x1f, 0x00, 0xfe, 0x00, 0xf8, 0x7f, 0x00, 0xfe, 0x1f, 0x00, 0xfe,
   0x00, 0xf8, 0x7f, 0x00, 0xfe, 0x1f, 0x00, 0xfe, 0x00, 0xf8, 0x7f, 0x00,
   0xfe, 0x1f, 0x00, 0xfe, 0x00, 0xf8, 0x7f, 0x00, 0xfe, 0x1f, 0x00, 0xfe,
   0x00, 0xf8, 0x7f, 0x00, 0xfe, 0x1f, 0x00, 0xfe, 0x00, 0xf8, 0x7f, 0x00,
   0xfe, 0x1f, 0x00, 0xfe, 0x00, 0xf8, 0x7f, 0x00, 0xfe, 0x1f, 0x00, 0xfe,
   0x00, 0xf8, 0x7f, 0x00, 0xfe, 0x1f, 0x00, 0xfe, 0x00, 0xf8, 0x7f, 0x00,
   0xfe, 0x1f, 0x00, 0xfe, 0x00, 0xf8, 0x7f, 0x00, 0xfe, 0x1f, 0x00, 0xfe,
   0x00, 0xf8, 0x7f, 0x00, 0xfe, 0x1f, 0x00, 0xfe, 0x00, 0xf8, 0x7f, 0x00,
   0xfe, 0x1f, 0x00, 0xfe, 0x00, 0xf8, 0x7f, 0x00, 0xfe, 0x1f, 0x00, 0xfe,
   0x00, 0xf8, 0x7f, 0x00, 0xfe, 0x1f, 0x00, 0xfe, 0x00, 0xf8, 0x7f, 0x00,
   0xfe, 0x1f, 0x00, 0xfe, 0x00, 0xf8, 0x7f, 0x00, 0xfe, 0x1f, 0x00, 0xfe,
   0x00, 0xf8, 0x7f, 0x00, 0xfe, 0x1f, 0x00, 0xfe, 0x00, 0xf8, 0x7f, 0x00,
   0xfe, 0x1f, 0x00, 0xfe, 0x00, 0xf8, 0x7f, 0x00, 0xfe, 0x1f, 0x00, 0xfe,
   0x00, 0x00, 0x00, 0x00, 0x00, 0x00, 0x00, 0xfe, 0x00, 0x00, 0x00, 0x00,
   0x00, 0x00, 0x00, 0xfe, 0x00, 0x00, 0x00, 0x00, 0x00, 0x00, 0x00, 0xfe,
   0x00, 0x00, 0x00, 0x00, 0x00, 0x00, 0x00, 0xfe, 0x00, 0x00, 0x00, 0x00,
   0x00, 0x00, 0x00, 0xfe, 0x00, 0x00, 0x00, 0x00, 0x00, 0x00, 0x00, 0xfe,
   0x00, 0x00, 0x00, 0x00, 0x00, 0x00, 0x00, 0xfe, 0x00, 0x00, 0x00, 0x00,
   0x00, 0x00, 0x00, 0xfe, 0x00, 0x00, 0x00, 0x00, 0x00, 0x00, 0x00, 0xfe,
   0x00, 0x00, 0x00, 0x00, 0x00, 0x00, 0x00, 0xfe, 0x00, 0x00, 0x00, 0x00,
   0x00, 0x00, 0x00, 0xfe, 0x00, 0x00, 0x00, 0x00, 0x00, 0x00, 0x00, 0xfe,
   0x00, 0x00, 0x00, 0x00, 0x00, 0x00, 0x00, 0xfe, 0x00, 0x00, 0x00, 0x00,
   0x00, 0x00, 0x00, 0xfe, 0x00, 0x00, 0x00, 0x00, 0x00, 0x00, 0x00, 0xfe,
   0x00, 0x00, 0x00, 0x00, 0x00, 0x00, 0x00, 0xfe};
