#define stop_icon_width 8
#define stop_icon_height 7
static unsigned char stop_icon_bits[] = {
   0x00, 0x7e, 0x7e, 0x7e, 0x7e, 0x7e, 0x00};
