<?xml version="1.0" standalone="no"?>
<!DOCTYPE svg PUBLIC "-//W3C//DTD SVG 1.1//EN" "http://www.w3.org/TR/2001/REC-SVG-20010904/DTD/svg11.dtd" >
<svg viewBox="0 -200 1000 1000" transform="matrix(1 0 0 -1 0 800)">
  <g stroke="green" stroke-width="1">
    <line x1="0" y1="0" x2="415" y2="0" />
    <line x1="0" y1="10" x2="0" y2="-10" />
    <line x1="415" y1="10" x2="415" y2="-10" />
  </g>

  <path fill="currentColor"
d="M183 300c0 43 -5 50 23 50c26 0 24 -4 24 -47v-36h13h4c89 0 147 -67 166 -144c3 -11 3 -14 3 -26s0 -16 -2 -22c-8 -29 -28 -51 -54 -60c-8 -2 -10 -2 -22 -2s-14 0 -22 2c-35 12 -63 41 -63 85c0 48 40 90 84 90h5c-27 27 -53 43 -96 43c-10 0 -13 -1 -16 -1v-464h5
c3 0 8 -1 13 -1c79 0 122 71 141 138c4 11 5 24 19 24c8 0 18 -6 18 -15c0 -13 -12 -48 -25 -74c-29 -57 -72 -93 -122 -104c-9 -2 -14 -2 -30 -2h-19v-37c0 -43 5 -47 -23 -47c-29 0 -24 5 -24 50v40c-109 27 -166 94 -181 215c-1 10 -2 27 -2 45c0 244 183 256 183 260v40
zM183 216c-48 -32 -45 -101 -45 -216c0 -100 -3 -179 39 -212l6 -4v432z" />
</svg>
