<?xml version="1.0" standalone="no"?>
<!DOCTYPE svg PUBLIC "-//W3C//DTD SVG 1.1//EN" "http://www.w3.org/TR/2001/REC-SVG-20010904/DTD/svg11.dtd" >
<svg viewBox="0 -200 1000 1000" transform="matrix(1 0 0 -1 0 800)">
  <g stroke="green" stroke-width="1">
    <line x1="0" y1="0" x2="684" y2="0" />
    <line x1="0" y1="10" x2="0" y2="-10" />
    <line x1="684" y1="10" x2="684" y2="-10" />
  </g>

  <path fill="currentColor"
d="M350 282c-38 0 -76 29 -76 79c0 70 52 121 116 136c17 3 20 4 39 4c167 0 256 -84 256 -249c0 -119 -109 -208 -222 -208c-41 0 -63 28 -91 28c-33 0 -45 -29 -45 -72c0 -32 7 -72 45 -72c25 0 55 27 82 27h9c109 0 222 -81 222 -209c0 -161 -90 -245 -253 -245
c-30 0 -37 1 -58 7c-59 20 -101 75 -101 133c0 40 31 77 76 77c38 0 77 -33 77 -76c0 -40 -47 -39 -47 -76c0 -25 24 -36 49 -36c116 0 134 100 134 229c0 101 -17 166 -105 166c-69 0 -110 -59 -114 -131c-1 -13 -3 -24 -17 -24c-12 0 -14 10 -15 28c0 75 -39 138 -82 183
v-236c0 -209 0 -236 -2 -239c-2 -5 -5 -6 -21 -6c-15 0 -18 1 -20 6c-2 3 -2 57 -2 494s0 491 2 494c2 5 5 6 21 6c15 0 18 -1 20 -6c2 -3 2 -30 2 -239v-235c43 43 82 108 82 182c1 13 1 28 15 28c29 0 5 -59 48 -113c22 -27 50 -42 83 -42c95 0 105 77 105 176
c0 121 -20 213 -127 219c-17 0 -26 -1 -36 -6c-13 -7 -20 -17 -20 -29c0 -38 47 -39 47 -76c0 -42 -36 -77 -76 -77zM6 498c2 2 12 2 64 2c67 0 65 0 68 -6c2 -3 2 -57 2 -494s0 -491 -2 -494c-3 -6 -1 -6 -68 -6s-65 0 -68 6c-2 3 -2 57 -2 494c0 436 0 491 2 494
c0 2 2 4 4 4z" />
</svg>
