<?xml version="1.0" standalone="no"?>
<!DOCTYPE svg PUBLIC "-//W3C//DTD SVG 1.1//EN" "http://www.w3.org/TR/2001/REC-SVG-20010904/DTD/svg11.dtd" >
<svg viewBox="0 -200 1000 1000" transform="matrix(1 0 0 -1 0 800)">
  <g stroke="green" stroke-width="1">
    <line x1="0" y1="0" x2="275" y2="0" />
    <line x1="0" y1="10" x2="0" y2="-10" />
    <line x1="275" y1="10" x2="275" y2="-10" />
  </g>

  <path fill="currentColor"
d="M101 171l73 36v75c0 72 -4 82 14 91c3 1 6 2 10 2c29 0 23 -37 23 -82v-62c13 7 16 9 26 9c7 0 17 1 25 -15c2 -4 3 -6 3 -36v-8c0 -47 -1 -39 -54 -66v-146c4 0 12 9 26 9c11 0 20 -6 25 -16c2 -4 3 -5 3 -38v-34c-8 -21 -33 -25 -54 -37v-75c0 -57 6 -93 -23 -93
c-30 0 -24 37 -24 82v62l-73 -36v-149c-3 -7 -9 -19 -23 -19c-30 0 -24 35 -24 82v62c-13 -7 -16 -9 -26 -9c-22 0 -23 14 -27 20l-1 31v8c0 47 1 39 54 66v146c-4 0 -12 -9 -26 -9c-11 0 -20 6 -25 16c-2 4 -2 5 -2 39v34c7 21 33 24 53 36v150c4 9 11 18 23 18
c30 0 24 -35 24 -82v-62zM102 -91l72 36v73c0 40 0 73 -1 73l-72 -36v-73c0 -40 0 -73 1 -73z" />
</svg>
