<?xml version="1.0" standalone="no"?>
<!DOCTYPE svg PUBLIC "-//W3C//DTD SVG 1.1//EN" "http://www.w3.org/TR/2001/REC-SVG-20010904/DTD/svg11.dtd" >
<svg viewBox="0 -200 1000 1000" transform="matrix(1 0 0 -1 0 800)">
  <g stroke="green" stroke-width="1">
    <line x1="0" y1="0" x2="641" y2="0" />
    <line x1="0" y1="10" x2="0" y2="-10" />
    <line x1="641" y1="10" x2="641" y2="-10" />
  </g>

  <path fill="currentColor"
d="M355 -267c-200 0 -355 160 -355 361c0 165 102 301 194 423l39 53s-48 133 -58 238c-7 48 -11 88 -11 137c0 130 61 234 147 305c85 -71 172 -250 172 -378c0 -155 -91 -280 -171 -391c34 -102 44 -130 70 -214c55 -4 171 -22 232 -148c20 -40 29 -82 29 -123
c0 -112 -77 -209 -160 -240l-4 -1l1 -42c0 -58 -2 -120 -7 -154c-14 -103 -81 -215 -204 -215c-108 0 -212 79 -212 197c0 72 43 117 104 117c34 2 102 -20 102 -102c0 -8 0 -17 -1 -21c-11 -43 -45 -71 -85 -71c-13 0 -18 2 -21 2h-1s1 -3 3 -7c25 -45 65 -71 111 -71
c77 0 133 67 154 148c10 38 13 97 13 168c0 20 0 36 -1 37c-8 0 -39 -8 -80 -8zM404 964c0 87 -33 115 -33 124h-1s-4 -2 -11 -7c-85 -66 -137 -159 -137 -280c0 -49 27 -136 44 -187c100 137 138 243 138 350zM337 265c-6 18 -56 172 -57 172c-2 0 -33 -41 -62 -81
c-82 -117 -138 -226 -138 -348c0 -56 15 -97 49 -136c44 -52 129 -94 208 -94h18c32 0 40 0 78 6v6c-4 12 -6 138 -58 337l-5 22h-9c-68 -5 -130 -49 -130 -119c0 -54 39 -94 78 -118c8 -5 15 -10 15 -20c0 -12 -11 -23 -23 -23c-4 0 -16 6 -18 7c-71 34 -123 98 -123 185
c0 106 72 181 164 201zM416 145c33 -122 60 -297 60 -344c0 -1 0 -1 1 -1s3 1 8 3c37 21 88 75 88 153c0 44 -17 88 -46 124c-26 30 -62 53 -100 62c-3 1 -7 2 -8 2z" />
</svg>
