#define dalSegnoAlCoda_width 184
#define dalSegnoAlCoda_height 63
static unsigned char dalSegnoAlCoda_bits[] = {
   0x00, 0x00, 0x00, 0x00, 0x00, 0x00, 0x00, 0x00, 0x00, 0x00, 0x00, 0x00,
   0x00, 0x00, 0x00, 0x00, 0x00, 0x00, 0x00, 0x3c, 0x00, 0x00, 0x00, 0x00,
   0x00, 0x00, 0x00, 0x00, 0x00, 0x00, 0x00, 0x00, 0x00, 0x00, 0x00, 0x00,
   0x00, 0x00, 0x00, 0x00, 0x00, 0x00, 0x3c, 0x00, 0x00, 0x00, 0x00, 0x00,
   0x00, 0x00, 0x00, 0x00, 0x00, 0x00, 0x00, 0x00, 0x00, 0x00, 0x00, 0x00,
   0x00, 0x00, 0x00, 0x00, 0x00, 0x3c, 0x00, 0x00, 0x00, 0x00, 0x00, 0x00,
   0x00, 0x00, 0x00, 0x00, 0x00, 0x00, 0x00, 0x00, 0x00, 0x00, 0x00, 0x00,
   0x00, 0x00, 0x00, 0x00, 0x3c, 0x00, 0x00, 0x00, 0x00, 0x00, 0x00, 0x00,
   0x00, 0x00, 0x00, 0x00, 0x00, 0x00, 0x00, 0x00, 0x00, 0x00, 0x00, 0x00,
   0x00, 0x00, 0x00, 0x3c, 0x00, 0x00, 0x00, 0x00, 0x00, 0x00, 0x00, 0x00,
   0x00, 0x00, 0x00, 0x00, 0x00, 0x00, 0x00, 0x00, 0x00, 0x00, 0x00, 0x00,
   0x00, 0x00, 0x3c, 0x00, 0x00, 0x00, 0x00, 0x00, 0x00, 0x00, 0x00, 0x00,
   0x00, 0x00, 0x00, 0x00, 0x00, 0x00, 0x00, 0x00, 0x00, 0x00, 0x00, 0x00,
   0x00, 0x3c, 0x00, 0x00, 0x00, 0x00, 0x00, 0x00, 0x00, 0x00, 0x00, 0x00,
   0x00, 0x00, 0x00, 0x00, 0x00, 0x00, 0x00, 0x00, 0x00, 0x00, 0x00, 0x00,
   0x3c, 0x00, 0x00, 0x00, 0x00, 0x00, 0x00, 0x00, 0x00, 0x00, 0x00, 0x00,
   0x00, 0x00, 0x00, 0x00, 0x00, 0x00, 0x00, 0x00, 0x00, 0x00, 0x80, 0xff,
   0x01, 0x00, 0x00, 0x00, 0x00, 0x00, 0x00, 0x00, 0x00, 0x00, 0x00, 0x00,
   0x00, 0x00, 0x00, 0x00, 0x00, 0x00, 0x00, 0x00, 0x00, 0xe0, 0xff, 0x07,
   0x00, 0x00, 0x00, 0x00, 0x00, 0x00, 0x00, 0x00, 0x00, 0x00, 0x00, 0x00,
   0x00, 0x00, 0x00, 0x00, 0x00, 0x00, 0x00, 0x00, 0xf0, 0xff, 0x0f, 0x00,
   0x00, 0x00, 0x00, 0x00, 0x00, 0x00, 0x00, 0x00, 0x00, 0x00, 0x00, 0x00,
   0x00, 0x00, 0x00, 0x00, 0x00, 0x00, 0x00, 0xf8, 0x3c, 0x1f, 0x00, 0x00,
   0x00, 0x00, 0x00, 0x00, 0x00, 0x00, 0x00, 0x00, 0x00, 0x00, 0x00, 0x00,
   0x00, 0x00, 0x00, 0x00, 0x00, 0x00, 0x7c, 0x3c, 0x3e, 0x00, 0x00, 0x00,
   0x00, 0x00, 0x00, 0x00, 0x00, 0x00, 0x00, 0x00, 0x00, 0x00, 0x00, 0x00,
   0x00, 0x00, 0x00, 0x00, 0x00, 0x3e, 0x3c, 0x7c, 0x00, 0x00, 0x00, 0x00,
   0x00, 0x00, 0x00, 0x00, 0x00, 0x00, 0x00, 0x00, 0x00, 0x00, 0x00, 0x00,
   0x00, 0x00, 0x00, 0x00, 0x3e, 0x3c, 0x7c, 0x00, 0x00, 0x00, 0x00, 0x00,
   0x00, 0x00, 0x00, 0x00, 0x00, 0x00, 0x00, 0x00, 0x00, 0x00, 0x00, 0x00,
   0x00, 0x00, 0x00, 0x1f, 0x3c, 0xf8, 0x00, 0x00, 0x00, 0x00, 0x00, 0x00,
   0x00, 0x00, 0x00, 0x00, 0x00, 0x00, 0x00, 0x00, 0x00, 0x00, 0xc0, 0x00,
   0x00, 0x00, 0x1f, 0x3c, 0xf8, 0x00, 0x00, 0x00, 0x00, 0x00, 0x00, 0x00,
   0x00, 0x00, 0x00, 0x00, 0x00, 0x00, 0x00, 0x00, 0x00, 0xfc, 0x00, 0x00,
   0x80, 0x1f, 0x3c, 0xf8, 0x01, 0x00, 0x00, 0x00, 0x00, 0x00, 0x00, 0x00,
   0xf8, 0x0f, 0x00, 0x00, 0x00, 0x00, 0x00, 0x00, 0xff, 0x00, 0x00, 0x80,
   0x1f, 0x3c, 0xf8, 0x01, 0x00, 0xe0, 0xff, 0x1f, 0x00, 0x00, 0x00, 0xfc,
   0x3f, 0x00, 0x00, 0x00, 0x00, 0x00, 0x00, 0xfe, 0x00, 0x00, 0xc0, 0x1f,
   0x3c, 0xf8, 0x03, 0x00, 0xc0, 0xff, 0xff, 0x00, 0x00, 0x00, 0xfe, 0x3f,
   0x00, 0x00, 0x00, 0x00, 0x00, 0x00, 0xf8, 0x00, 0x00, 0xc0, 0x0f, 0x3c,
   0xf0, 0x03, 0x00, 0x00, 0xff, 0xff, 0x01, 0x00, 0x80, 0x0f, 0x3c, 0x00,
   0x00, 0x00, 0x00, 0x00, 0x00, 0x78, 0x00, 0x00, 0xc0, 0x0f, 0x3c, 0xf0,
   0x03, 0x00, 0x00, 0xff, 0xff, 0x03, 0x00, 0x80, 0x07, 0x18, 0x00, 0x00,
   0x00, 0x00, 0x00, 0x00, 0x78, 0x00, 0x00, 0xc0, 0x0f, 0x3c, 0xf0, 0x03,
   0x00, 0x00, 0x1f, 0xe0, 0x07, 0x00, 0xc0, 0x03, 0x18, 0x00, 0x00, 0x00,
   0x00, 0x00, 0x00, 0x78, 0x00, 0x00, 0xe0, 0x0f, 0x3c, 0xf0, 0x07, 0x00,
   0x00, 0x1f, 0xc0, 0x07, 0x00, 0xc0, 0x03, 0x18, 0x00, 0x00, 0x00, 0x00,
   0x00, 0x00, 0x7c, 0x00, 0x00, 0xe0, 0x0f, 0x3c, 0xf0, 0x07, 0x00, 0x80,
   0x1f, 0xc0, 0x0f, 0x00, 0xe0, 0x03, 0x18, 0x00, 0x00, 0x00, 0x00, 0x00,
   0x00, 0x7c, 0x00, 0x00, 0xe0, 0x0f, 0x3c, 0xf0, 0x07, 0x00, 0x80, 0x0f,
   0xc0, 0x0f, 0x00, 0xe0, 0x03, 0x00, 0x00, 0x00, 0x00, 0x00, 0x3f, 0x06,
   0x3c, 0x00, 0x00, 0xe0, 0x0f, 0x3c, 0xf0, 0x07, 0x00, 0x80, 0x0f, 0x80,
   0x0f, 0x00, 0xe0, 0x07, 0x00, 0x00, 0x00, 0x00, 0xc0, 0xff, 0x07, 0x3c,
   0x00, 0x00, 0xe0, 0x0f, 0x3c, 0xf0, 0x07, 0x00, 0x80, 0x0f, 0x80, 0x0f,
   0x00, 0xc0, 0x0f, 0x00, 0x00, 0x00, 0x00, 0xf0, 0xe3, 0x07, 0x3c, 0x00,
   0x00, 0xe0, 0x0f, 0x3c, 0xf0, 0x07, 0x00, 0x80, 0x0f, 0x80, 0x0f, 0x00,
   0xc0, 0x3f, 0x00, 0x00, 0x00, 0x00, 0xf8, 0xe0, 0x07, 0x3e, 0x00, 0xf8,
   0xff, 0xff, 0xff, 0xff, 0xff, 0x1f, 0x80, 0x0f, 0x80, 0x0f, 0x00, 0x80,
   0xff, 0x00, 0x00, 0x00, 0x00, 0x78, 0xc0, 0x03, 0x3e, 0x00, 0xf8, 0xff,
   0xff, 0xff, 0xff, 0xff, 0x1f, 0xc0, 0x07, 0x80, 0x0f, 0x00, 0x00, 0xff,
   0x01, 0x00, 0x00, 0x00, 0x3c, 0xc0, 0x03, 0x3e, 0x00, 0xf8, 0xff, 0xff,
   0xff, 0xff, 0xff, 0x1f, 0xc0, 0x07, 0xc0, 0x0f, 0x00, 0x00, 0xfe, 0x07,
   0x00, 0x00, 0x00, 0x3e, 0xe0, 0x03, 0x1e, 0x00, 0xf8, 0xff, 0xff, 0xff,
   0xff, 0xff, 0x1f, 0xc0, 0x07, 0xc0, 0x0f, 0x00, 0x00, 0xf8, 0x0f, 0x00,
   0x00, 0x00, 0x1e, 0xe0, 0x03, 0x1e, 0x00, 0x00, 0xe0, 0x0f, 0x3c, 0xf0,
   0x07, 0x00, 0xc0, 0x07, 0xc0, 0x0f, 0x00, 0x00, 0xe0, 0x0f, 0x00, 0x00,
   0x00, 0x1e, 0xe0, 0x03, 0x1f, 0x00, 0x00, 0xe0, 0x0f, 0x3c, 0xf0, 0x07,
   0x00, 0xc0, 0x07, 0xc0, 0x07, 0x00, 0x00, 0xc0, 0x0f, 0x00, 0x00, 0x00,
   0x1f, 0xe0, 0x01, 0x1f, 0x00, 0x00, 0xe0, 0x0f, 0x3c, 0xf0, 0x07, 0x00,
   0xe0, 0x07, 0xe0, 0x07, 0x00, 0x00, 0x80, 0x1f, 0x00, 0x00, 0x00, 0x1f,
   0xe0, 0x01, 0x1f, 0x00, 0x00, 0xe0, 0x0f, 0x3c, 0xf0, 0x07, 0x00, 0xe0,
   0x03, 0xe0, 0x03, 0x00, 0x30, 0x00, 0x1f, 0x00, 0x00, 0x00, 0x1f, 0xf0,
   0x01, 0x0f, 0x00, 0x00, 0xe0, 0x0f, 0x3c, 0xf0, 0x07, 0x00, 0xe0, 0x03,
   0xf0, 0x03, 0x00, 0x38, 0x00, 0x1f, 0x00, 0x00, 0x00, 0x1f, 0xf0, 0x01,
   0x0f, 0x00, 0x00, 0xe0, 0x0f, 0x3c, 0xf0, 0x07, 0x00, 0xe0, 0x03, 0xf0,
   0x01, 0x00, 0x38, 0x00, 0x0f, 0x00, 0x00, 0x00, 0x1f, 0xf0, 0x01, 0x0f,
   0x00, 0x00, 0xc0, 0x0f, 0x3c, 0xf0, 0x03, 0x00, 0xe0, 0x03, 0xf8, 0x00,
   0x0f, 0x38, 0x00, 0x0f, 0x3c, 0x00, 0x00, 0x1f, 0xf0, 0x81, 0x0f, 0x00,
   0x00, 0xc0, 0x0f, 0x3c, 0xf0, 0x03, 0x00, 0xf0, 0x03, 0x7c, 0x80, 0x1f,
   0x38, 0x80, 0x07, 0x3e, 0x00, 0x00, 0x1f, 0xf8, 0x81, 0x0f, 0x00, 0x00,
   0xc0, 0x0f, 0x3c, 0xf0, 0x03, 0x00, 0xf0, 0x01, 0x3f, 0x80, 0x1f, 0x78,
   0xc0, 0x07, 0x7e, 0x00, 0x00, 0x7e, 0xfe, 0x81, 0x0f, 0x00, 0x00, 0xc0,
   0x1f, 0x3c, 0xf8, 0x03, 0x00, 0xf0, 0xe3, 0x1f, 0x80, 0x1f, 0xf8, 0xff,
   0x03, 0x7e, 0x00, 0x00, 0xfe, 0xf7, 0x9f, 0xff, 0x01, 0x00, 0x80, 0x1f,
   0x3c, 0xf8, 0x01, 0x00, 0xfc, 0xff, 0x03, 0x80, 0x1f, 0xf0, 0xff, 0x00,
   0x3e, 0x00, 0x00, 0xfc, 0xf3, 0x8f, 0xff, 0x00, 0x00, 0x80, 0x1f, 0x3c,
   0xf8, 0x01, 0x00, 0xfc, 0x3f, 0x00, 0x00, 0x07, 0xc0, 0x3f, 0x00, 0x1c,
   0x00, 0x00, 0xf8, 0xe0, 0x03, 0x1f, 0x00, 0x00, 0x00, 0x1f, 0x3c, 0xf8,
   0x00, 0x00, 0x00, 0x00, 0x00, 0x00, 0x00, 0x00, 0x00, 0x00, 0x00, 0x00,
   0x00, 0x00, 0x00, 0x00, 0x00, 0x00, 0x00, 0x00, 0x1f, 0x3c, 0xf8, 0x00,
   0x00, 0x00, 0x00, 0x00, 0x00, 0x00, 0x00, 0x00, 0x00, 0x00, 0x00, 0x00,
   0x00, 0x00, 0x00, 0x00, 0x00, 0x00, 0x00, 0x3e, 0x3c, 0x7c, 0x00, 0x00,
   0x00, 0x00, 0x00, 0x00, 0x00, 0x00, 0x00, 0x00, 0x00, 0x00, 0x00, 0x00,
   0x00, 0x00, 0x00, 0x00, 0x00, 0x00, 0x3e, 0x3c, 0x7c, 0x00, 0x00, 0x00,
   0x00, 0x00, 0x00, 0x00, 0x00, 0x00, 0x00, 0x00, 0x00, 0x00, 0x00, 0x00,
   0x00, 0x00, 0x00, 0x00, 0x00, 0x7c, 0x3c, 0x3e, 0x00, 0x00, 0x00, 0x00,
   0x00, 0x00, 0x00, 0x00, 0x00, 0x00, 0x00, 0x00, 0x00, 0x00, 0x00, 0x00,
   0x00, 0x00, 0x00, 0x00, 0xf8, 0x3c, 0x1f, 0x00, 0x00, 0x00, 0x00, 0x00,
   0x00, 0x00, 0x00, 0x00, 0x00, 0x00, 0x00, 0x00, 0x00, 0x00, 0x00, 0x00,
   0x00, 0x00, 0x00, 0xf0, 0xff, 0x0f, 0x00, 0x00, 0x00, 0x00, 0x00, 0x00,
   0x00, 0x00, 0x00, 0x00, 0x00, 0x00, 0x00, 0x00, 0x00, 0x00, 0x00, 0x00,
   0x00, 0x00, 0xe0, 0xff, 0x07, 0x00, 0x00, 0x00, 0x00, 0x00, 0x00, 0x00,
   0x00, 0x00, 0x00, 0x00, 0x00, 0x00, 0x00, 0x00, 0x00, 0x00, 0x00, 0x00,
   0x00, 0x80, 0xff, 0x01, 0x00, 0x00, 0x00, 0x00, 0x00, 0x00, 0x00, 0x00,
   0x00, 0x00, 0x00, 0x00, 0x00, 0x00, 0x00, 0x00, 0x00, 0x00, 0x00, 0x00,
   0x00, 0x3c, 0x00, 0x00, 0x00, 0x00, 0x00, 0x00, 0x00, 0x00, 0x00, 0x00,
   0x00, 0x00, 0x00, 0x00, 0x00, 0x00, 0x00, 0x00, 0x00, 0x00, 0x00, 0x00,
   0x3c, 0x00, 0x00, 0x00, 0x00, 0x00, 0x00, 0x00, 0x00, 0x00, 0x00, 0x00,
   0x00, 0x00, 0x00, 0x00, 0x00, 0x00, 0x00, 0x00, 0x00, 0x00, 0x00, 0x3c,
   0x00, 0x00, 0x00, 0x00, 0x00, 0x00, 0x00, 0x00, 0x00, 0x00, 0x00, 0x00,
   0x00, 0x00, 0x00, 0x00, 0x00, 0x00, 0x00, 0x00, 0x00, 0x00, 0x3c, 0x00,
   0x00, 0x00, 0x00, 0x00, 0x00, 0x00, 0x00, 0x00, 0x00, 0x00, 0x00, 0x00,
   0x00, 0x00, 0x00, 0x00, 0x00, 0x00, 0x00, 0x00, 0x00, 0x3c, 0x00, 0x00,
   0x00, 0x00, 0x00, 0x00, 0x00, 0x00, 0x00, 0x00, 0x00, 0x00, 0x00, 0x00,
   0x00, 0x00, 0x00, 0x00, 0x00, 0x00, 0x00, 0x00, 0x3c, 0x00, 0x00, 0x00,
   0x00, 0x00, 0x00, 0x00, 0x00, 0x00, 0x00, 0x00, 0x00, 0x00, 0x00, 0x00,
   0x00, 0x00, 0x00, 0x00, 0x00, 0x00, 0x00, 0x3c, 0x00, 0x00, 0x00, 0x00,
   0x00, 0x00, 0x00, 0x00, 0x00, 0x00, 0x00, 0x00, 0x00, 0x00, 0x00, 0x00,
   0x00, 0x00, 0x00, 0x00, 0x00, 0x00, 0x3c, 0x00, 0x00, 0x00, 0x00, 0x00,
   0x00, 0x00, 0x00, 0x00, 0x00, 0x00, 0x00, 0x00, 0x00, 0x00, 0x00, 0x00,
   0x00, 0x00, 0x00, 0x00, 0x00, 0x3c, 0x00, 0x00, 0x00};
