#define tinyflag_width 9
#define tinyflag_height 30
static unsigned char tinyflag_bits[] = {
   0x00, 0x00, 0x01, 0x00, 0x03, 0x00, 0x03, 0x00, 0x03, 0x00, 0x07, 0x00,
   0x0f, 0x00, 0x0f, 0x00, 0x0f, 0x00, 0x1f, 0x00, 0x3e, 0x00, 0x78, 0x00,
   0xf0, 0x00, 0xe0, 0x00, 0xe0, 0x00, 0xc0, 0x01, 0xc0, 0x01, 0xc0, 0x01,
   0xc0, 0x01, 0xc0, 0x01, 0xc0, 0x01, 0xc0, 0x01, 0xc0, 0x01, 0xc0, 0x01,
   0x00, 0x00, 0x00, 0x00, 0x00, 0x00, 0x00, 0x00, 0x00, 0x00, 0x00, 0x00};
