#define flat_width 20
#define flat_height 45
static unsigned char flat_bits[] = {
   0x07, 0x00, 0x00, 0x07, 0x00, 0x00, 0x07, 0x00, 0x00, 0x07, 0x00, 0x00,
   0x07, 0x00, 0x00, 0x07, 0x00, 0x00, 0x07, 0x00, 0x00, 0x07, 0x00, 0x00,
   0x07, 0x00, 0x00, 0x07, 0x00, 0x00, 0x07, 0x00, 0x00, 0x07, 0x00, 0x00,
   0x07, 0x00, 0x00, 0x07, 0x00, 0x00, 0x07, 0x00, 0x00, 0x07, 0x00, 0x00,
   0x07, 0x00, 0x00, 0x07, 0x00, 0x00, 0x07, 0x00, 0x00, 0x07, 0x00, 0x00,
   0xe7, 0x0f, 0x00, 0xf7, 0x3f, 0x00, 0xff, 0xff, 0x00, 0x3f, 0xf8, 0x01,
   0x0f, 0xf0, 0x03, 0x07, 0xf0, 0x07, 0x07, 0xf0, 0x07, 0x07, 0xf0, 0x07,
   0x07, 0xf0, 0x07, 0x07, 0xf0, 0x07, 0x07, 0xf0, 0x07, 0x07, 0xf8, 0x03,
   0x07, 0xf8, 0x03, 0x07, 0xfc, 0x01, 0x07, 0xfe, 0x00, 0x07, 0x3f, 0x00,
   0x87, 0x1f, 0x00, 0xe7, 0x0f, 0x00, 0xf7, 0x03, 0x00, 0xff, 0x00, 0x00,
   0xff, 0x00, 0x00, 0x7f, 0x00, 0x00, 0x0f, 0x00, 0x00, 0x07, 0x00, 0x00,
   0x03, 0x00, 0x00};
