#define natur_icon_width 8
#define natur_icon_height 15
static unsigned char natur_icon_bits[] = {
   0x02, 0x02, 0x02, 0x22, 0x3a, 0x3e, 0x26, 0x22, 0x22, 0x22, 0x3a, 0x3e,
   0x26, 0x20, 0x20};
