#define tinybase_width 18
#define tinybase_height 14
static unsigned char tinybase_bits[] = {
   0x00, 0x0e, 0x00, 0xc0, 0x7f, 0x00, 0xf0, 0xff, 0x00, 0xf8, 0xff, 0x01,
   0xfc, 0xff, 0x03, 0xfe, 0xff, 0x03, 0xfe, 0xff, 0x03, 0xff, 0xff, 0x03,
   0xff, 0xff, 0x03, 0xff, 0xff, 0x01, 0xfe, 0xff, 0x00, 0xfc, 0x7f, 0x00,
   0xf8, 0x3f, 0x00, 0xf0, 0x0f, 0x00};
