#define dcross_icon_width 11
#define dcross_icon_height 11
static unsigned char dcross_icon_bits[] = {
   0x8f, 0x07, 0x8f, 0x07, 0x8f, 0x07, 0xdf, 0x07, 0xd8, 0x00, 0x20, 0x00,
   0xd8, 0x00, 0xdf, 0x07, 0x8f, 0x07, 0x8f, 0x07, 0x87, 0x07};
