#define time_24_width 21
#define time_24_height 30
static unsigned char time_24_bits[] = {
   0x00, 0x00, 0x00, 0x00, 0x00, 0x00, 0x00, 0x1e, 0x00, 0x00, 0x3f, 0x00,
   0x80, 0x73, 0x00, 0x80, 0x63, 0x00, 0x00, 0x60, 0x00, 0x00, 0x70, 0x00,
   0x00, 0x38, 0x00, 0x00, 0x1c, 0x00, 0x00, 0x0e, 0x00, 0x00, 0x67, 0x00,
   0x80, 0x7f, 0x00, 0x80, 0x7f, 0x00, 0x00, 0x00, 0x00, 0x00, 0x00, 0x00,
   0x00, 0x10, 0x00, 0x00, 0x18, 0x00, 0x00, 0x1c, 0x00, 0x00, 0x1e, 0x00,
   0x00, 0x1b, 0x00, 0x80, 0x19, 0x00, 0xc0, 0x18, 0x00, 0xc0, 0x7f, 0x00,
   0x00, 0x18, 0x00, 0x00, 0x18, 0x00, 0x00, 0x7e, 0x00, 0x00, 0x7e, 0x00,
   0x00, 0x00, 0x00, 0x00, 0x00, 0x00};
