#define coda_width 50
#define coda_height 66
static unsigned char coda_bits[] = {
   0x00, 0x00, 0x80, 0x07, 0x00, 0x00, 0x00, 0x00, 0x00, 0x80, 0x07, 0x00,
   0x00, 0x00, 0x00, 0x00, 0x80, 0x07, 0x00, 0x00, 0x00, 0x00, 0x00, 0x80,
   0x07, 0x00, 0x00, 0x00, 0x00, 0x00, 0x80, 0x07, 0x00, 0x00, 0x00, 0x00,
   0x00, 0x80, 0x07, 0x00, 0x00, 0x00, 0x00, 0x00, 0x80, 0x07, 0x00, 0x00,
   0x00, 0x00, 0x00, 0x80, 0x07, 0x00, 0x00, 0x00, 0x00, 0x00, 0x80, 0x07,
   0x00, 0x00, 0x00, 0x00, 0x00, 0x80, 0x07, 0x00, 0x00, 0x00, 0x00, 0x00,
   0xf0, 0x3f, 0x00, 0x00, 0x00, 0x00, 0x00, 0xfc, 0xff, 0x00, 0x00, 0x00,
   0x00, 0x00, 0xfe, 0xff, 0x01, 0x00, 0x00, 0x00, 0x00, 0x9f, 0xe7, 0x03,
   0x00, 0x00, 0x00, 0x80, 0x8f, 0xc7, 0x07, 0x00, 0x00, 0x00, 0xc0, 0x87,
   0x87, 0x0f, 0x00, 0x00, 0x00, 0xc0, 0x87, 0x87, 0x0f, 0x00, 0x00, 0x00,
   0xe0, 0x83, 0x07, 0x1f, 0x00, 0x00, 0x00, 0xe0, 0x83, 0x07, 0x1f, 0x00,
   0x00, 0x00, 0xf0, 0x83, 0x07, 0x3f, 0x00, 0x00, 0x00, 0xf0, 0x83, 0x07,
   0x3f, 0x00, 0x00, 0x00, 0xf8, 0x83, 0x07, 0x7f, 0x00, 0x00, 0x00, 0xf8,
   0x81, 0x07, 0x7e, 0x00, 0x00, 0x00, 0xf8, 0x81, 0x07, 0x7e, 0x00, 0x00,
   0x00, 0xf8, 0x81, 0x07, 0x7e, 0x00, 0x00, 0x00, 0xfc, 0x81, 0x07, 0xfe,
   0x00, 0x00, 0x00, 0xfc, 0x81, 0x07, 0xfe, 0x00, 0x00, 0x00, 0xfc, 0x81,
   0x07, 0xfe, 0x00, 0x00, 0x00, 0xfc, 0x81, 0x07, 0xfe, 0x00, 0x00, 0x00,
   0xfc, 0x81, 0x07, 0xfe, 0x00, 0x00, 0x00, 0xfc, 0x81, 0x07, 0xfe, 0x00,
   0x00, 0xff, 0xff, 0xff, 0xff, 0xff, 0xff, 0x03, 0xff, 0xff, 0xff, 0xff,
   0xff, 0xff, 0x03, 0xff, 0xff, 0xff, 0xff, 0xff, 0xff, 0x03, 0xff, 0xff,
   0xff, 0xff, 0xff, 0xff, 0x03, 0x00, 0xfc, 0x81, 0x07, 0xfe, 0x00, 0x00,
   0x00, 0xfc, 0x81, 0x07, 0xfe, 0x00, 0x00, 0x00, 0xfc, 0x81, 0x07, 0xfe,
   0x00, 0x00, 0x00, 0xfc, 0x81, 0x07, 0xfe, 0x00, 0x00, 0x00, 0xfc, 0x81,
   0x07, 0xfe, 0x00, 0x00, 0x00, 0xfc, 0x81, 0x07, 0xfe, 0x00, 0x00, 0x00,
   0xf8, 0x81, 0x07, 0x7e, 0x00, 0x00, 0x00, 0xf8, 0x81, 0x07, 0x7e, 0x00,
   0x00, 0x00, 0xf8, 0x81, 0x07, 0x7e, 0x00, 0x00, 0x00, 0xf8, 0x83, 0x07,
   0x7f, 0x00, 0x00, 0x00, 0xf0, 0x83, 0x07, 0x3f, 0x00, 0x00, 0x00, 0xf0,
   0x83, 0x07, 0x3f, 0x00, 0x00, 0x00, 0xe0, 0x83, 0x07, 0x1f, 0x00, 0x00,
   0x00, 0xe0, 0x83, 0x07, 0x1f, 0x00, 0x00, 0x00, 0xc0, 0x87, 0x87, 0x0f,
   0x00, 0x00, 0x00, 0xc0, 0x87, 0x87, 0x0f, 0x00, 0x00, 0x00, 0x80, 0x8f,
   0xc7, 0x07, 0x00, 0x00, 0x00, 0x00, 0x9f, 0xe7, 0x03, 0x00, 0x00, 0x00,
   0x00, 0xfe, 0xff, 0x01, 0x00, 0x00, 0x00, 0x00, 0xfc, 0xff, 0x00, 0x00,
   0x00, 0x00, 0x00, 0xf0, 0x3f, 0x00, 0x00, 0x00, 0x00, 0x00, 0x80, 0x07,
   0x00, 0x00, 0x00, 0x00, 0x00, 0x80, 0x07, 0x00, 0x00, 0x00, 0x00, 0x00,
   0x80, 0x07, 0x00, 0x00, 0x00, 0x00, 0x00, 0x80, 0x07, 0x00, 0x00, 0x00,
   0x00, 0x00, 0x80, 0x07, 0x00, 0x00, 0x00, 0x00, 0x00, 0x80, 0x07, 0x00,
   0x00, 0x00, 0x00, 0x00, 0x80, 0x07, 0x00, 0x00, 0x00, 0x00, 0x00, 0x80,
   0x07, 0x00, 0x00, 0x00, 0x00, 0x00, 0x80, 0x07, 0x00, 0x00, 0x00, 0x00,
   0x00, 0x80, 0x07, 0x00, 0x00, 0x00};
